<svg xmlns="http://www.w3.org/2000/svg" version="1.1" xmlns:xlink="http://www.w3.org/1999/xlink" xmlns:svgjs="http://svgjs.com/svgjs" width="512" height="512" x="0" y="0" viewBox="0 0 480 480" style="enable-background:new 0 0 512 512" xml:space="preserve" class=""><g><path d="M392 200h-22.145a134.568 134.568 0 0 0-9.742-23.543l15.657-15.648c1.503-1.504 2.343-3.528 2.343-5.657s-.84-4.16-2.343-5.656l-45.258-45.258a7.997 7.997 0 0 0-11.313 0l-15.656 15.649A135.444 135.444 0 0 0 280 110.152V88c0-4.426-3.586-8-8-8h-64c-4.414 0-8 3.574-8 8v22.152a134.838 134.838 0 0 0-23.543 9.735l-15.656-15.649a7.997 7.997 0 0 0-11.313 0l-45.258 45.258c-1.503 1.504-2.343 3.527-2.343 5.656s.84 4.16 2.343 5.657l15.657 15.648A134.817 134.817 0 0 0 110.145 200H88c-4.414 0-8 3.574-8 8v64c0 4.426 3.586 8 8 8h22.145a134.568 134.568 0 0 0 9.742 23.543l-15.657 15.648c-1.503 1.504-2.343 3.528-2.343 5.657s.84 4.16 2.343 5.656l45.258 45.258a7.997 7.997 0 0 0 11.313 0l15.656-15.649A135.444 135.444 0 0 0 200 369.848V392c0 4.426 3.586 8 8 8h64c4.414 0 8-3.574 8-8v-22.152c8.16-2.496 16.04-5.77 23.543-9.735l15.656 15.649a7.997 7.997 0 0 0 11.313 0l45.258-45.258c1.503-1.504 2.343-3.527 2.343-5.656s-.84-4.16-2.343-5.657l-15.657-15.648A134.817 134.817 0 0 0 369.855 280H392c4.414 0 8-3.574 8-8v-64c0-4.426-3.586-8-8-8zm-8 64h-20.191a8.007 8.007 0 0 0-7.747 6 119.374 119.374 0 0 1-12.765 30.848 7.987 7.987 0 0 0 1.223 9.726l14.28 14.274-33.945 33.945-14.27-14.273a8.027 8.027 0 0 0-9.722-1.23 119.393 119.393 0 0 1-30.855 12.765 8.014 8.014 0 0 0-6.008 7.754V384h-48v-20.191a8.023 8.023 0 0 0-6-7.754 119.393 119.393 0 0 1-30.855-12.766c-3.153-1.848-7.153-1.344-9.72 1.23l-14.273 14.274-33.945-33.945 14.281-14.274a7.999 7.999 0 0 0 1.23-9.726A119.238 119.238 0 0 1 123.954 270a8.032 8.032 0 0 0-7.762-6H96v-48h20.191a8.007 8.007 0 0 0 7.746-6 119.374 119.374 0 0 1 12.766-30.848 7.999 7.999 0 0 0-1.23-9.726l-14.282-14.274 33.946-33.945 14.27 14.273a8.02 8.02 0 0 0 9.722 1.23 119.393 119.393 0 0 1 30.855-12.765 8.012 8.012 0 0 0 6.016-7.754V96h48v20.191a8.023 8.023 0 0 0 6 7.754 119.393 119.393 0 0 1 30.855 12.766c3.145 1.832 7.145 1.336 9.72-1.23l14.273-14.274 33.945 33.945-14.281 14.274a8.008 8.008 0 0 0-1.223 9.726A119.102 119.102 0 0 1 356.055 210a8.016 8.016 0 0 0 7.754 6H384zm0 0" fill="#000000" data-original="#000000" class=""></path><path d="M240 144c-52.938 0-96 43.063-96 96s43.063 96 96 96 96-43.063 96-96-43.063-96-96-96zm0 176c-44.113 0-80-35.887-80-80s35.887-80 80-80 80 35.887 80 80-35.887 80-80 80zm0 0" fill="#000000" data-original="#000000" class=""></path><path d="M212.055 185.04A8.015 8.015 0 0 0 208 192v96a8.015 8.015 0 0 0 4.055 6.96A7.988 7.988 0 0 0 216 296a8.016 8.016 0 0 0 4.121-1.145l80-48c2.406-1.44 3.879-4.039 3.879-6.855s-1.473-5.414-3.879-6.855l-80-48a8.018 8.018 0 0 0-8.066-.106zM224 206.136 280.45 240 224 273.863zM448 0c-17.648 0-32 14.352-32 32s14.352 32 32 32 32-14.352 32-32-14.352-32-32-32zm0 48c-8.824 0-16-7.176-16-16s7.176-16 16-16 16 7.176 16 16-7.176 16-16 16zM32 0C14.352 0 0 14.352 0 32s14.352 32 32 32 32-14.352 32-32S49.648 0 32 0zm0 48c-8.824 0-16-7.176-16-16s7.176-16 16-16 16 7.176 16 16-7.176 16-16 16zM448 416c-17.648 0-32 14.352-32 32s14.352 32 32 32 32-14.352 32-32-14.352-32-32-32zm0 48c-8.824 0-16-7.176-16-16s7.176-16 16-16 16 7.176 16 16-7.176 16-16 16zM32 416c-17.648 0-32 14.352-32 32s14.352 32 32 32 32-14.352 32-32-14.352-32-32-32zm0 48c-8.824 0-16-7.176-16-16s7.176-16 16-16 16 7.176 16 16-7.176 16-16 16zM416 240h16v16h-16zM448 240h16v16h-16zM448 208h16v16h-16zM448 176h16v16h-16zM448 144h16v16h-16zM448 112h16v16h-16zM448 80h16v16h-16zM80 16h16v16H80zM112 16h16v16h-16zM144 16h16v16h-16zM176 16h16v16h-16zM208 16h16v16h-16zM240 16h16v16h-16zM240 48h16v16h-16zM16 384h16v16H16zM16 352h16v16H16zM16 320h16v16H16zM16 288h16v16H16zM16 256h16v16H16zM16 224h16v16H16zM48 224h16v16H48zM224 416h16v16h-16zM224 448h16v16h-16zM256 448h16v16h-16zM288 448h16v16h-16zM320 448h16v16h-16zM352 448h16v16h-16zM384 448h16v16h-16zm0 0" fill="#000000" data-original="#000000" class=""></path></g></svg>