<?xml version="1.0" encoding="utf-8"?>
<!-- Generator: Adobe Illustrator 25.0.1, SVG Export Plug-In . SVG Version: 6.00 Build 0)  -->
<svg version="1.1" id="Layer_1" xmlns:svgjs="http://svgjs.com/svgjs"
	 xmlns="http://www.w3.org/2000/svg" xmlns:xlink="http://www.w3.org/1999/xlink" x="0px" y="0px" viewBox="0 0 512 512"
	 style="enable-background:new 0 0 512 512;" xml:space="preserve">
<style type="text/css">
	.st0{fill:none;stroke:#000000;stroke-width:12;stroke-linecap:round;stroke-linejoin:round;stroke-miterlimit:10;}
	.st1{clip-path:url(#SVGID_2_);}
	.st2{fill:#FF8B34;}
</style>
<g>
	<path class="st0" d="M239.3,401.5h-36.5"/>
	<path class="st0" d="M309.8,401.5H273"/>
	<g>
		<defs>
			<rect id="SVGID_1_" y="0" width="512" height="512"/>
		</defs>
		<clipPath id="SVGID_2_">
			<use xlink:href="#SVGID_1_"  style="overflow:visible;"/>
		</clipPath>
		<g transform="matrix(1.33333 0 0 -1.33333 0 682.667)" class="st1">
			<path class="st0" d="M127.4,210.9H89.6c-4.1,0-7.5,3.4-7.5,7.5v21.8h219.8v-21.8c0-4.1-3.4-7.5-7.5-7.5H257"/>
			<path class="st0" d="M343.9,373.3V262.6c0-12.4-10.1-22.5-22.5-22.5H62.6c-12.4,0-22.5,10.1-22.5,22.5v221.3
				c0,12.4,10.1,22.5,22.5,22.5h258.8c12.4,0,22.5-10.1,22.5-22.5v-84.3"/>
			<path class="st0" d="M62.6,337.4v139c0,4.1,3.4,7.5,7.5,7.5h92.2"/>
			<path class="st0" d="M188.6,483.9h125.3c4.1,0,7.5-3.4,7.5-7.5V270.1c0-4.1-3.4-7.5-7.5-7.5H70.1c-4.1,0-7.5,3.4-7.5,7.5v41"/>
			<path class="st0" d="M203.3,238.7V133.6"/>
			<path class="st0" d="M180.8,133.6v105.1"/>
			<path class="st0" d="M233.3,238.7v-82.6c0-12.4,10.1-22.5,22.5-22.5h122.6"/>
			<path class="st0" d="M378.4,156.1H258c-1.2,0-2.2,1-2.2,2.2v80.4"/>
			<path class="st0" d="M55.9,156.1H5.6"/>
			<path class="st0" d="M128.3,238.7v-80.4c0-1.2-1-2.3-2.3-2.3H82.1"/>
			<path class="st0" d="M5.6,133.6h122.6c12.4,0,22.5,10.1,22.5,22.5v82.6"/>
			<path class="st2" d="M157.2,361.6c-2.1-2.7-0.1-6.7,3.3-6.7h24L171.6,325c-1.9-4.5,1.4-9.5,6.3-9.5c2.1,0,4.2,1,5.5,2.7
				l35.9,47.9c2.1,2.7,0.1,6.7-3.3,6.7h-24l12.9,29.9c2,4.5-1.4,9.5-6.3,9.5c-2.1,0-4.2-1-5.5-2.7L157.2,361.6z"/>
			<path class="st0" d="M172.5,440.8l-65-112.6c-8.7-15,2.2-33.8,19.5-33.8h130c17.3,0,28.1,18.8,19.5,33.8l-65,112.6
				C202.8,455.8,181.2,455.8,172.5,440.8z"/>
			<path class="st0" d="M103.1,425.4v-16.5"/>
			<path class="st2" d="M121.1,443.4c0,9.9-8.1,18-18,18s-18-8.1-18-18c0-9.9,8.1-18,18-18S121.1,433.4,121.1,443.4z"/>
		</g>
	</g>
</g>
</svg>
