<svg xmlns="http://www.w3.org/2000/svg" version="1.1" xmlns:xlink="http://www.w3.org/1999/xlink" xmlns:svgjs="http://svgjs.com/svgjs" width="512" height="512" x="0" y="0" viewBox="0 0 682.667 682.667" style="enable-background:new 0 0 512 512" xml:space="preserve"><g><defs><clipPath id="a" clipPathUnits="userSpaceOnUse"><path d="M0 512h512V0H0Z" fill="#ff8b34" data-original="#ff8b34"></path></clipPath></defs><g clip-path="url(#a)" transform="matrix(1.33333 0 0 -1.33333 0 682.667)"><path d="m0 0-67.575 66.323c-9.399 8.517-23.724 8.517-33.123 0L-168.273 0" style="stroke-linecap: round; stroke-linejoin: round; stroke-miterlimit: 10; stroke-dasharray: none; stroke-opacity: 1;" transform="translate(340.137 431.79)" fill="none" stroke="#ff8b34" stroke-width="15px" stroke-linecap="round" stroke-linejoin="round" stroke-miterlimit="10" stroke-dasharray="none" stroke-opacity="" data-original="#ff8b34"></path><path d="m0 0-31.724-31.668" style="stroke-linecap: round; stroke-linejoin: round; stroke-miterlimit: 10; stroke-dasharray: none; stroke-opacity: 1;" transform="translate(468.427 305.875)" fill="none" stroke="#ff8b34" stroke-width="15px" stroke-linecap="round" stroke-linejoin="round" stroke-miterlimit="10" stroke-dasharray="none" stroke-opacity="" data-original="#ff8b34"></path><path d="m0 0 181.674-99.835" style="stroke-linecap: round; stroke-linejoin: round; stroke-miterlimit: 10; stroke-dasharray: none; stroke-opacity: 1;" transform="translate(294.241 131.998)" fill="none" stroke="#ff8b34" stroke-width="15px" stroke-linecap="round" stroke-linejoin="round" stroke-miterlimit="10" stroke-dasharray="none" stroke-opacity="" data-original="#ff8b34"></path><path d="m0 0-31.724 31.668" style="stroke-linecap: round; stroke-linejoin: round; stroke-miterlimit: 10; stroke-dasharray: none; stroke-opacity: 1;" transform="translate(75.297 274.207)" fill="none" stroke="#ff8b34" stroke-width="15px" stroke-linecap="round" stroke-linejoin="round" stroke-miterlimit="10" stroke-dasharray="none" stroke-opacity="" data-original="#ff8b34"></path><path d="m0 0-181.673-99.835" style="stroke-linecap: round; stroke-linejoin: round; stroke-miterlimit: 10; stroke-dasharray: none; stroke-opacity: 1;" transform="translate(217.758 131.998)" fill="none" stroke="#ff8b34" stroke-width="15px" stroke-linecap="round" stroke-linejoin="round" stroke-miterlimit="10" stroke-dasharray="none" stroke-opacity="" data-original="#ff8b34"></path><path d="M0 0h80.921c13.621 0 24.663 11.042 24.663 24.663v255.87a25 25 0 0 1-7.488 17.842l-31.724 31.136" style="stroke-linecap: round; stroke-linejoin: round; stroke-miterlimit: 10; stroke-dasharray: none; stroke-opacity: 1;" transform="translate(370.331 7.5)" fill="none" stroke="#ff8b34" stroke-width="15px" stroke-linecap="round" stroke-linejoin="round" stroke-miterlimit="10" stroke-dasharray="none" stroke-opacity="" data-original="#ff8b34"></path><path d="M0 0v-137.598c0-13.621 11.042-24.663 24.663-24.663H301.56" style="stroke-linecap: round; stroke-linejoin: round; stroke-miterlimit: 10; stroke-dasharray: none; stroke-opacity: 1;" transform="translate(36.085 169.76)" fill="none" stroke="#ff8b34" stroke-width="15px" stroke-linecap="round" stroke-linejoin="round" stroke-miterlimit="10" stroke-dasharray="none" stroke-opacity="" data-original="#ff8b34"></path><path d="m0 0-31.724-31.136a25.003 25.003 0 0 1-7.488-17.842v-85.585" style="stroke-linecap: round; stroke-linejoin: round; stroke-miterlimit: 10; stroke-dasharray: none; stroke-opacity: 1;" transform="translate(75.297 337.01)" fill="none" stroke="#ff8b34" stroke-width="15px" stroke-linecap="round" stroke-linejoin="round" stroke-miterlimit="10" stroke-dasharray="none" stroke-opacity="" data-original="#ff8b34"></path><path d="M0 0v17.789c0 13.807-11.193 25-25 25h-311.406c-13.807 0-25-11.193-25-25v-132.582l142.461-142.209 26.364 14.487a24.658 24.658 0 0 0 23.756 0l26.363-14.487L0-114.793v82.868" style="stroke-linecap: round; stroke-linejoin: round; stroke-miterlimit: 10; stroke-dasharray: none; stroke-opacity: 1;" transform="translate(436.703 389)" fill="none" stroke="#ff8b34" stroke-width="15px" stroke-linecap="round" stroke-linejoin="round" stroke-miterlimit="10" stroke-dasharray="none" stroke-opacity="" data-original="#ff8b34"></path><path d="M0 0c0-20.053-12.307-35.069-27.04-35.069-14.733 0-27.763 14.808-27.763 34.86 0 20.053 13.753 33.413 28.487 33.413C-11.583 33.204 0 20.052 0 0Z" style="stroke-linecap: round; stroke-linejoin: round; stroke-miterlimit: 10; stroke-dasharray: none; stroke-opacity: 1;" transform="translate(279.607 306.776)" fill="none" stroke="#ff8b34" stroke-width="15px" stroke-linecap="round" stroke-linejoin="round" stroke-miterlimit="10" stroke-dasharray="none" stroke-opacity="" data-original="#ff8b34"></path><path d="M0 0c-29.305.811-56.025 20.645-63.96 50.813-9.158 34.822 10.872 71.192 45.181 82.113 36.287 11.552 74.878-8.863 85.842-45.191 3.88-14.535 1.615-27.18-3.525-40.107-2.039-5.125-8.762-17.124-23.716-17.124-8.164 0-14.97 7.824-14.925 16.836l.295 59.719" style="stroke-linecap: round; stroke-linejoin: round; stroke-miterlimit: 10; stroke-dasharray: none; stroke-opacity: 1;" transform="translate(254.579 237.765)" fill="none" stroke="#ff8b34" stroke-width="15px" stroke-linecap="round" stroke-linejoin="round" stroke-miterlimit="10" stroke-dasharray="none" stroke-opacity="" data-original="#ff8b34"></path><path d="M0 0c3.88-14.535 1.615-27.181-3.525-40.107" style="stroke-linecap: round; stroke-linejoin: round; stroke-miterlimit: 10; stroke-dasharray: none; stroke-opacity: 1;" transform="translate(321.642 325.5)" fill="none" stroke="#ff8b34" stroke-width="15px" stroke-linecap="round" stroke-linejoin="round" stroke-miterlimit="10" stroke-dasharray="none" stroke-opacity="" data-original="#ff8b34"></path></g></g></svg>