<svg xmlns="http://www.w3.org/2000/svg" version="1.1" xmlns:xlink="http://www.w3.org/1999/xlink" xmlns:svgjs="http://svgjs.com/svgjs" width="512" height="512" x="0" y="0" viewBox="0 0 480 480" style="enable-background:new 0 0 512 512" xml:space="preserve" class=""><g><path d="M456 216h-.32c-3.034-88.692-60.255-166.404-144.048-195.632C309.844 8.686 299.818.045 288 0h-96c-11.818.045-21.844 8.686-23.632 20.368C84.575 49.596 27.354 127.308 24.32 216H24c-13.255 0-24 10.745-24 24v16c0 13.255 10.745 24 24 24h432c13.255 0 24-10.745 24-24v-16c0-13.255-10.745-24-24-24zM168 37.528V176a8 8 0 0 0 16 0V24a8 8 0 0 1 8-8h40v176a8 8 0 0 0 16 0V16h40a8 8 0 0 1 8 8v152a8 8 0 0 0 16 0V37.528C386.472 66.066 436.719 136.302 439.68 216H40.32C43.281 136.302 93.528 66.066 168 37.528zM464 256a8 8 0 0 1-8 8H24a8 8 0 0 1-8-8v-16a8 8 0 0 1 8-8h432a8 8 0 0 1 8 8v16zM200 352H96c-13.255 0-24 10.745-24 24v32a8 8 0 0 0 16 0v-32a8 8 0 0 1 8-8h104a8 8 0 0 0 0-16z" fill="#ff8b34" data-original="#ff8b34" class=""></path><path d="M472 352h-32.8c-3.827-18.611-20.199-31.976-39.2-32H80c-22.08.026-39.974 17.92-40 40H8a8 8 0 0 0-8 8v64a8 8 0 0 0 8 8h34.4c7.089 23.695 28.867 39.947 53.6 40h48a104.567 104.567 0 0 0 89.344-50.728 7.848 7.848 0 0 1 13.312 0A104.567 104.567 0 0 0 336 480h48c27.813-.033 51.387-20.473 55.36-48H472a8 8 0 0 0 8-8v-64a8 8 0 0 0-8-8zM40 424H16v-24h24v24zm0-40H16v-8h24v8zm384 40c-.026 22.08-17.92 39.974-40 40h-48a88.51 88.51 0 0 1-75.616-42.936c-6.813-11.267-21.47-14.877-32.736-8.064a23.836 23.836 0 0 0-8.064 8.064A88.512 88.512 0 0 1 144 464H96c-22.08-.026-39.974-17.92-40-40v-64c0-13.255 10.745-24 24-24h320c13.255 0 24 10.745 24 24v64zm40-8h-24v-24h24v24zm0-40h-24v-8h24v8z" fill="#ff8b34" data-original="#ff8b34" class=""></path><path d="M248 352h-16a8 8 0 0 0 0 16h16a8 8 0 0 0 0-16z" fill="#ff8b34" data-original="#ff8b34" class=""></path></g></svg>