<?xml version="1.0" encoding="utf-8"?>
<!-- Generator: Adobe Illustrator 25.0.1, SVG Export Plug-In . SVG Version: 6.00 Build 0)  -->
<svg version="1.1" id="Layer_1" xmlns:svgjs="http://svgjs.com/svgjs"
	 xmlns="http://www.w3.org/2000/svg" xmlns:xlink="http://www.w3.org/1999/xlink" x="0px" y="0px" viewBox="0 0 512 512"
	 style="enable-background:new 0 0 512 512;" xml:space="preserve">
<style type="text/css">
	.st0{fill:#FF8B24;}
</style>
<g>
	<path d="M267.6,246.7l24,16c3.7,2.5,8.6,1.5,11.1-2.2s1.5-8.6-2.2-11.1l-19.7-13.1l7.1-42.9c0.7-4.4-2.2-8.5-6.6-9.2
		c-2.5-0.4-5.1,0.4-7,2.2l-64,64c-3.1,3.1-3.1,8.2,0,11.3c0.4,0.4,0.8,0.7,1.2,1l19.7,13.1l-7.1,42.9c-0.7,4.4,2.2,8.5,6.6,9.2
		c2.5,0.4,5.1-0.4,7-2.2l40.7-40.7c3.1-3.2,3-8.2-0.2-11.3c-3.1-3-8-3-11.1,0l-23,23l3.9-23.4c0.5-3.1-0.8-6.2-3.4-8l-15.9-10.6
		l39.4-39.4l-3.9,23.4C263.6,241.8,264.9,244.9,267.6,246.7L267.6,246.7z M89,383c4.4,0,8-3.6,8-8c0-2.1-0.8-4.2-2.3-5.7
		c-12.7-12.1-32.6-12.1-45.2,0c-3.2,3.1-3.3,8.1-0.2,11.3c3.1,3.2,8.1,3.3,11.3,0.2c0.1-0.1,0.1-0.1,0.2-0.2c6.3-6,16.3-6,22.6,0
		C84.8,382.2,86.8,383,89,383z"/>
	<path d="M111.6,360.4c4.4,0,8-3.6,8-8c0-2.1-0.8-4.2-2.3-5.7c-25-25-65.5-25-90.5,0l0,0c-3.1,3.2-3,8.2,0.2,11.3c3.1,3,8,3,11.1,0
		c18.7-18.7,49.1-18.7,67.9,0l0,0C107.4,359.6,109.5,360.4,111.6,360.4z"/>
	<circle cx="72" cy="400" r="8"/>
	<path d="M479.4,158.7c12.5-4,19.5-17.4,15.5-30c-2.3-7.1-7.8-12.8-14.9-15.3V111c21.7-22.1,21.3-57.5-0.8-79.2
		c-22.1-21.6-57.5-21.3-79.2,0.8c-21.3,21.8-21.3,56.6,0,78.4v2.4c-12.4,4.3-19,17.9-14.7,30.4c2.5,7.1,8.1,12.6,15.3,14.9
		c1.8,10.6,7.8,20,16.6,26c-0.8,2.3-1.2,4.8-1.2,7.2c0,10.1,6.5,19.2,16,22.5V264h-80v-16c0-4.4-3.6-8-8-8s-8,3.6-8,8v72
		c0,4.4,3.6,8,8,8h16v16H144c-4.4,0-8,3.6-8,8s3.6,8,8,8h40v104h-41.5c-2.4-6.8-7.8-12.1-14.5-14.5V440c0-4.4-3.6-8-8-8h-8v-24
		c0-4.4-3.6-8-8-8s-8,3.6-8,8v24H48v-24c0-4.4-3.6-8-8-8s-8,3.6-8,8v24h-8c-4.4,0-8,3.6-8,8v32c0,13.3,10.8,24,24,24h40
		c4.4,0,8-3.6,8-8s-3.6-8-8-8H40c-4.4,0-8-3.6-8-8v-24h80v1.5c-12.5,4.4-19,18-14.7,30.5c4.4,12.5,18.1,19,30.5,14.7
		c6.8-2.4,12.2-7.8,14.7-14.7H192c4.4,0,8-3.6,8-8V360h72v64c0,4.4,3.6,8,8,8h49.5c2.4,6.8,7.8,12.1,14.5,14.5v9.5c0,4.4,3.6,8,8,8
		h24v16h-16c-4.4,0-8,3.6-8,8s3.6,8,8,8h112c4.4,0,8-3.6,8-8s-3.6-8-8-8h-16v-16h24c1.1,0,2.2-0.2,3.2-0.7c0.2-0.1,0.3-0.2,0.5-0.3
		c0.8-0.4,1.5-0.9,2.1-1.5c0-0.1,0.1-0.1,0.2-0.1c0.2-0.3,0.4-0.7,0.6-1c0.4-0.5,0.7-1,0.9-1.5c0.2-0.6,0.3-1.1,0.4-1.7
		c0.1-0.4,0.2-0.8,0.2-1.1v-72c0-4.4-3.6-8-8-8H352c-4.4,0-8,3.6-8,8v17.5c-6.8,2.4-12.1,7.8-14.5,14.5H288v-56h80c4.4,0,8-3.6,8-8
		v-32c0-4.4-3.6-8-8-8h-16v-32h88c4.4,0,8-3.6,8-8v-57.5c9.5-3.4,16-12.4,16-22.5c0-2.5-0.5-4.9-1.2-7.3
		C471.6,178.7,477.6,169.3,479.4,158.7z M120,480c-4.4,0-8-3.6-8-8s3.6-8,8-8s8,3.6,8,8S124.4,480,120,480z M440,480h-48v-16h48V480
		z M472,392v46l-51.2-46H472z M360,392h36.9l62.2,56H360v-1.5c12.4-4.3,19-17.9,14.7-30.4c-2.4-6.9-7.8-12.3-14.7-14.7V392z
		 M352,416c4.4,0,8,3.6,8,8s-3.6,8-8,8s-8-3.6-8-8S347.6,416,352,416z M410.2,45.3C417.8,36.8,428.6,32,440,32
		c22.1,0,40,17.8,40,39.9c0,11.4-4.8,22.2-13.3,29.8c-1.7,1.5-2.7,3.7-2.7,6v4.3h-16V91.3l13.7-13.6c3.1-3.2,3-8.2-0.2-11.3
		c-3.1-3-8-3-11.1,0L440,76.7l-10.3-10.3c-3.2-3.1-8.2-3-11.3,0.2c-3,3.1-3,8,0,11.1L432,91.3V112h-16v-4.3c0-2.3-1-4.4-2.7-6
		C396.9,87,395.5,61.8,410.2,45.3z M440,200c-4.4,0-8-3.6-8-8s3.6-8,8-8s8,3.6,8,8S444.4,200,440,200z M453.2,172
		c-8-5.3-18.4-5.3-26.3,0c-4.4-2.9-7.7-7.1-9.4-12h45.2C460.8,164.9,457.5,169.1,453.2,172z M408,144c-4.4,0-8-3.6-8-8s3.6-8,8-8h64
		c4.4,0,8,3.6,8,8s-3.6,8-8,8H408z"/>
	<path class="st0" d="M480,71.9c0,11.4-4.8,22.2-13.3,29.8c-1.7,1.5-2.7,3.7-2.7,6v4.3h-16h-16h-16v-4.3c0-2.3-1-4.4-2.7-6
		c-16.5-14.7-17.9-40-3.2-56.4C417.8,36.8,428.6,32,440,32C462.1,32,480,49.8,480,71.9z"/>
	<circle class="st0" cx="352" cy="424" r="8"/>
	<circle class="st0" cx="120" cy="472" r="8"/>
	<circle class="st0" cx="440" cy="192" r="8"/>
	<path d="M24,224h40v40c0,4.4,3.6,8,8,8h88v40h-16c-4.4,0-8,3.6-8,8s3.6,8,8,8h24c4.4,0,8-3.6,8-8V216c0-4.4-3.6-8-8-8h-32v-3.3
		l120-67.5l36.1,20.3c3.9,2.2,8.7,0.8,10.9-3.1c0.7-1.2,1-2.5,1-3.9V136h24v37c0,2.9,1.6,5.6,4.1,7l43.9,24.7v3.3h-32
		c-4.4,0-8,3.6-8,8s3.6,8,8,8h40c4.4,0,8-3.6,8-8v-16c0-2.9-1.6-5.6-4.1-7L344,168.3V128c0-4.4-3.6-8-8-8h-40c-4.4,0-8,3.6-8,8v8.8
		L259.9,121c-2.4-1.4-5.4-1.4-7.8,0l-128,72c-2.5,1.4-4.1,4.1-4.1,7v16c0,4.4,3.6,8,8,8h32v32H80v-40c0-4.4-3.6-8-8-8H32v-32h72
		c4.4,0,8-3.6,8-8v-16c0-4.4-3.6-8-8-8s-8,3.6-8,8v8H80v-32h40c3.7,0,6.9-2.5,7.8-6.1l24-96c1.1-4.3-1.5-8.6-5.8-9.7
		c-0.6-0.2-1.3-0.2-1.9-0.2H48c-3.7,0-6.9,2.5-7.8,6.1l-24,96c-1.1,4.3,1.5,8.6,5.8,9.7c0.6,0.2,1.3,0.2,1.9,0.2h40v32H24
		c-4.4,0-8,3.6-8,8v48C16,220.4,19.6,224,24,224z M46.2,64h15.5l-4,16H42.2L46.2,64z M101.8,32l-4,16H82.2l4-16H101.8z M121.8,80
		h-15.5l4-16h15.5L121.8,80z M66.2,112l4-16h15.5l-4,16H66.2z M89.8,80H74.2l4-16h15.5L89.8,80z M113.8,112H98.2l4-16h15.5
		L113.8,112z M129.8,48h-15.5l4-16h15.5L129.8,48z M54.2,32h15.5l-4,16H50.2L54.2,32z M38.2,96h15.5l-4,16H34.2L38.2,96z"/>
</g>
</svg>
