<svg xmlns="http://www.w3.org/2000/svg" viewBox="0 0 368.52 326.74"><defs><style>.cls-1{fill:#666;}</style></defs><g id="Layer_2" data-name="Layer 2"><g id="Layer_12" data-name="Layer 12"><path class="cls-1" d="M249.52,256.53a58.35,58.35,0,0,1-12,18.91,72.57,72.57,0,0,1-8.17,7.43,76.92,76.92,0,0,1-9.1,6.06A94,94,0,0,1,179,300.74a98.41,98.41,0,0,1-42.57-6.94,81.6,81.6,0,0,1-19.32-11.21,67.8,67.8,0,0,1-14-14.86,2.52,2.52,0,0,1,.78-3.57l21.49-11.82a2.11,2.11,0,0,1,2.82.79,39.45,39.45,0,0,0,7.4,8.4,52.84,52.84,0,0,0,12.23,7.8,64.61,64.61,0,0,0,14.54,4.72A76.84,76.84,0,0,0,178,275.5a68.38,68.38,0,0,0,30.08-7.18,54.78,54.78,0,0,0,6.44-3.89,50,50,0,0,0,5.62-4.66,36.2,36.2,0,0,0,8-11.25,28.69,28.69,0,0,0,2.4-12.84,30.16,30.16,0,0,0-3.7-12.87,41.07,41.07,0,0,0-9.22-11.27,56.63,56.63,0,0,0-13.13-8.44,74.2,74.2,0,0,0-31.93-6.67,72.61,72.61,0,0,0-32,7.5l-24.18,12.3,12.84-23L178.88,104l6.7-12,7.58,11.53L239,172.61h0a41.71,41.71,0,0,1-32.06-18.43l-20.14-30.61-32.22,57.85a95.89,95.89,0,0,1,17.34-2.5,93.86,93.86,0,0,1,40.74,6.83A77.25,77.25,0,0,1,231,196.47a67.68,67.68,0,0,1,7.91,7.44,55,55,0,0,1,6.58,8.86,50.64,50.64,0,0,1,7.15,21.29A49.8,49.8,0,0,1,249.52,256.53Z"/><path class="cls-1" d="M184.26,0,0,326.74H368.52ZM27.89,309.75l.13-.24L184.26,37.77l156.38,272Z"/></g></g></svg>