<svg xmlns="http://www.w3.org/2000/svg" version="1.1" xmlns:xlink="http://www.w3.org/1999/xlink" xmlns:svgjs="http://svgjs.com/svgjs" width="512" height="512" x="0" y="0" viewBox="0 0 509.912 509.912" style="enable-background:new 0 0 512 512" xml:space="preserve" class=""><g><path d="M441.969 494.912h-17.717v-30.083c14.203-3.392 24.798-16.183 24.798-31.409 0-17.809-14.489-32.298-32.298-32.298s-32.298 14.489-32.298 32.298c0 15.227 10.595 28.018 24.798 31.409v30.083h-36.514V64.799c0-7.385-4.675-14.01-11.632-16.487L227.386.722a12.512 12.512 0 0 0-11.397 1.563 12.516 12.516 0 0 0-5.293 10.213V55.16a7.5 7.5 0 0 0 15 0V16.042l130.381 46.402a2.505 2.505 0 0 1 1.662 2.355v50.971h-29.955c-6.892 0-12.5 5.607-12.5 12.5v21.828c0 6.893 5.608 12.5 12.5 12.5h29.955v31.216h-29.955c-6.892 0-12.5 5.607-12.5 12.5v21.828c0 6.892 5.608 12.5 12.5 12.5h29.955v31.216h-29.955c-6.892 0-12.5 5.607-12.5 12.5v21.828c0 6.893 5.608 12.5 12.5 12.5h29.955v31.216h-29.955c-6.892 0-12.5 5.607-12.5 12.5v21.828c0 6.893 5.608 12.5 12.5 12.5h29.955v25.676h-29.955c-6.892 0-12.5 5.607-12.5 12.5v60.005h-16.066v-376.34c0-4.057-1.979-7.875-5.293-10.213a12.518 12.518 0 0 0-11.397-1.563l-56.83 20.226V87.846a7.5 7.5 0 0 0-15 0v44.514l-61.889 22.026c-6.958 2.477-11.632 9.102-11.632 16.487v58.73a7.5 7.5 0 0 0 15 0v-11.875h92.782c1.378 0 2.5 1.122 2.5 2.5v61.614h-95.282v-19.553a7.5 7.5 0 0 0-15 0v232.623H100.66v-30.083c14.203-3.392 24.798-16.183 24.798-31.409 0-17.809-14.489-32.298-32.298-32.298s-32.298 14.489-32.298 32.298c0 15.227 10.595 28.018 24.798 31.409v30.083H67.943a7.5 7.5 0 0 0 0 15h374.025a7.5 7.5 0 0 0 .001-15zm-42.515-61.492c0-9.538 7.76-17.298 17.298-17.298s17.298 7.76 17.298 17.298-7.76 17.298-17.298 17.298-17.298-7.76-17.298-17.298zm-323.592 0c0-9.538 7.76-17.298 17.298-17.298s17.298 7.76 17.298 17.298-7.76 17.298-17.298 17.298-17.298-7.76-17.298-17.298zm254.421-285.822V130.77h27.455v16.828zm0 78.045v-16.828h27.455v16.828zm0 78.044v-16.828h27.455v16.828zm0 78.044v-16.828h27.455v16.828zm0 55.676h27.455v57.505h-27.455zm-82.827-140.565v74.762h-19.464a7.5 7.5 0 0 0 0 15h19.464v61.614c0 1.378-1.122 2.5-2.5 2.5h-92.782v-64.114h43.131a7.5 7.5 0 0 0 0-15h-43.131v-74.762zm-95.282 168.876h92.782c9.649 0 17.5-7.851 17.5-17.5v-227.99c0-9.649-7.851-17.5-17.5-17.5h-92.782v-31.855c0-1.055.668-2.001 1.662-2.355l130.381-46.402v372.796H152.174z" fill="#ffffff" data-original="#ffffff" class=""></path></g></svg>