<svg xmlns="http://www.w3.org/2000/svg" version="1.1" xmlns:xlink="http://www.w3.org/1999/xlink" xmlns:svgjs="http://svgjs.com/svgjs" width="512" height="512" x="0" y="0" viewBox="0 0 512 512" style="enable-background:new 0 0 512 512" xml:space="preserve"><g><path d="M477.615 102.35c-23.137-25.991-51.217-39.17-83.46-39.17-28.978 0-53.544 10.319-73.021 30.669-19.353 20.22-29.166 45.335-29.166 74.649 0 27.702 9.912 52.387 29.461 73.371 17.244 18.512 38.967 30.287 64.683 35.086-4.497 34.095-34.638 64.956-89.766 91.846l-9.927 4.843 40.701 75.14 9.188-4.657C452.889 385.033 512 301.518 512 195.901c0-36.438-11.568-67.912-34.385-93.551zm-141.74 318.143-20.392-37.642c61.323-32.133 92.392-70.76 92.392-114.924v-9.456l-9.395-1.064c-25.305-2.864-45.441-12.667-61.558-29.97-16.001-17.177-23.78-36.455-23.78-58.939 0-24.008 7.619-43.636 23.289-60.01 15.543-16.241 34.426-24.136 57.725-24.136 26.305 0 48.431 10.492 67.642 32.074 19.534 21.948 29.03 47.944 29.03 79.474 0 48.407-13.631 92.109-40.512 129.892-25.65 36.05-64.121 67.877-114.441 94.701zM190.638 102.303c-23.393-25.959-51.59-39.122-83.809-39.122-29.006 0-53.461 10.338-72.682 30.726-19.056 20.212-28.719 45.308-28.719 74.592 0 27.701 9.912 52.386 29.459 73.371 17.208 18.472 38.67 30.236 63.908 35.057-4.443 34.121-34.333 64.997-89.019 91.892L0 373.625l39.688 75.194 9.279-4.682c117.11-59.091 176.49-142.61 176.49-248.236-.001-36.466-11.717-67.957-34.819-93.598zM48.659 420.458l-19.836-37.584c60.878-32.145 91.725-70.781 91.725-114.947v-9.435l-9.374-1.082c-24.786-2.86-44.674-12.664-60.796-29.973C34.377 210.261 26.6 190.982 26.6 168.499c0-24.039 7.508-43.688 22.951-60.067 15.275-16.202 34.012-24.079 57.278-24.079 26.331 0 48.602 10.507 68.079 32.123 19.767 21.936 29.376 47.917 29.376 79.425 0 48.399-13.69 92.095-40.693 129.874-25.761 36.04-64.397 67.862-114.932 94.683z" fill="#000000" data-original="#000000"></path></g></svg>