<?xml version="1.0" encoding="utf-8"?>
<!-- Generator: Adobe Illustrator 25.0.1, SVG Export Plug-In . SVG Version: 6.00 Build 0)  -->
<svg version="1.1" id="Layer_1" xmlns:svgjs="http://svgjs.com/svgjs"
	 xmlns="http://www.w3.org/2000/svg" xmlns:xlink="http://www.w3.org/1999/xlink" x="0px" y="0px" viewBox="0 0 512 512"
	 style="enable-background:new 0 0 512 512;" xml:space="preserve">
<style type="text/css">
	.st0{fill:#FF8B34;}
</style>
<g>
	<path d="M236,489h40c4.1,0,7.5-3.4,7.5-7.5s-3.4-7.5-7.5-7.5h-40c-4.1,0-7.5,3.4-7.5,7.5S231.9,489,236,489z"/>
	<path d="M489.5,114.5c-9.8,0-18.1,6.3-21.2,15h-62.8v-92C405.5,16.8,388.7,0,368,0H144c-20.7,0-37.5,16.8-37.5,37.5v26.2
		c0,4.1,3.4,7.5,7.5,7.5s7.5-3.4,7.5-7.5V49h269v80.5h-52c-4.1,0-7.5,3.4-7.5,7.5v32.8L262.9,121c-4.1-2.9-9.7-2.9-13.8,0
		l-61.6,44.1v-24.9c8.7-3.1,15-11.4,15-21.2c0-12.4-10.1-22.5-22.5-22.5s-22.5,10.1-22.5,22.5c0,9.8,6.3,18.1,15,21.2v35.7l-32,22.9
		c-2.5,1.8-4,4.7-4,7.7v25.2c0,5.2,4.3,9.5,9.5,9.5h21.8v105.1c0,4.1,3.4,7.5,7.5,7.5h73.2v53.7h-127V95.7c0-4.1-3.4-7.5-7.5-7.5
		s-7.5,3.4-7.5,7.5v311.8H43.7c-3.1-8.7-11.4-15-21.2-15C10.1,392.5,0,402.6,0,415s10.1,22.5,22.5,22.5c9.8,0,18.1-6.3,21.2-15h62.8
		v52c0,20.7,16.8,37.5,37.5,37.5h224c20.7,0,37.5-16.8,37.5-37.5v-26.8c0-4.1-3.4-7.5-7.5-7.5s-7.5,3.4-7.5,7.5v3.3h-269v-28.5H256
		c4.1,0,7.5-3.4,7.5-7.5v-61.2h73.2c4.1,0,7.5-3.4,7.5-7.5V241.2H366c5.2,0,9.5-4.3,9.5-9.5v-25.2c0-3.1-1.5-5.9-4-7.7L346,180.5
		v-36h44.5V416c0,4.1,3.4,7.5,7.5,7.5s7.5-3.4,7.5-7.5V144.5h62.8c3.1,8.7,11.4,15,21.2,15c12.4,0,22.5-10.1,22.5-22.5
		C512,124.6,501.9,114.5,489.5,114.5z M121.8,34L121.8,34c0.1-0.7,0.3-1.4,0.4-2c0.2-0.6,0.3-1.2,0.5-1.7c0-0.1,0.1-0.2,0.1-0.2
		c0.2-0.5,0.4-1.1,0.6-1.6c0-0.1,0.1-0.2,0.1-0.3c0.2-0.5,0.5-1,0.8-1.5l0.1-0.2c0.3-0.5,0.6-1,0.9-1.5c0,0,0-0.1,0.1-0.1
		c0.3-0.5,0.7-1,1.1-1.4c0,0,0.1,0,0.1-0.1c0.4-0.5,0.8-0.9,1.2-1.3c0.5-0.5,1.1-1,1.6-1.5c0.4-0.4,0.9-0.7,1.3-1.1
		c0.1,0,0.1-0.1,0.2-0.2c0.5-0.3,1-0.7,1.5-1c0,0,0.1-0.1,0.2-0.1c0.5-0.3,1-0.6,1.6-0.9l0,0c0.5-0.3,1.1-0.5,1.7-0.7
		c0.1,0,0.1-0.1,0.2-0.1c0.5-0.2,1.1-0.4,1.7-0.5c0.1,0,0.2-0.1,0.3-0.1c0.6-0.1,1.1-0.3,1.7-0.4c0.1,0,0.2,0,0.3,0
		c0.6-0.1,1.2-0.2,1.8-0.2c0.1,0,0.1,0,0.2,0c0.6-0.1,1.3-0.1,1.9-0.1h224c0.7,0,1.3,0,1.9,0.1c0.1,0,0.2,0,0.2,0
		c0.6,0.1,1.2,0.1,1.8,0.2c0.1,0,0.2,0,0.3,0.1c0.6,0.1,1.2,0.2,1.7,0.4l0.3,0.1c0.6,0.2,1.1,0.3,1.7,0.5c0.1,0,0.1,0.1,0.2,0.1
		c0.6,0.2,1.1,0.5,1.7,0.7l0,0c0.5,0.3,1.1,0.6,1.6,0.9c0.1,0,0.1,0.1,0.2,0.1c0.5,0.3,1,0.6,1.5,1c0.1,0.1,0.1,0.1,0.2,0.2
		c1,0.7,1.9,1.5,2.8,2.4l0.2,0.2c0.4,0.4,0.8,0.9,1.2,1.3l0.1,0.1c0.4,0.5,0.7,0.9,1.1,1.4l0.1,0.1c0.3,0.5,0.6,1,0.9,1.5
		c0,0.1,0.1,0.2,0.1,0.2c0.3,0.5,0.5,1,0.8,1.5c0,0.1,0.1,0.2,0.1,0.3c0.2,0.5,0.4,1,0.6,1.6l0.1,0.3c0.2,0.6,0.4,1.1,0.5,1.7
		c0,0,0,0.1,0,0.2c0.1,0.6,0.3,1.2,0.4,1.8v0.1H121.8V34z M22.5,422.5c-4.1,0-7.5-3.4-7.5-7.5s3.4-7.5,7.5-7.5s7.5,3.4,7.5,7.5
		S26.6,422.5,22.5,422.5z M390.5,466v8.5c0,12.4-10.1,22.5-22.5,22.5H144c-12.4,0-22.5-10.1-22.5-22.5V466H390.5z M180,111.5
		c4.1,0,7.5,3.4,7.5,7.5s-3.4,7.5-7.5,7.5s-7.5-3.4-7.5-7.5S175.9,111.5,180,111.5z M360.5,209.3v16.9h-21.8c-5.2,0-9.5,4.3-9.5,9.5
		v73.1h-8.9c-4.1,0-7.5,3.4-7.5,7.5s3.4,7.5,7.5,7.5h8.9v15H182.8v-15h105.5c4.1,0,7.5-3.4,7.5-7.5s-3.4-7.5-7.5-7.5H182.8v-73.1
		c0-5.2-4.3-9.5-9.5-9.5h-21.8v-16.9L256,134.5l78.2,56l0.1,0.1L360.5,209.3z M489.5,144.5c-4.1,0-7.5-3.4-7.5-7.5s3.4-7.5,7.5-7.5
		s7.5,3.4,7.5,7.5S493.6,144.5,489.5,144.5z"/>
	<circle class="st0" cx="22.7" cy="415" r="22.7"/>
	<circle class="st0" cx="489.5" cy="137" r="7.5"/>
	<circle class="st0" cx="180" cy="119" r="7.5"/>
	<path class="st0" d="M283.4,251.8c-8-6-17.4-9.1-27.4-9.1s-19.5,3.2-27.5,9.2c-3.3,2.5-3.9,7.3-1.3,10.5c2.5,3.2,7.1,3.8,10.4,1.4
		c5.3-4,11.7-6.2,18.4-6.2s13,2.1,18.4,6.1c3.3,2.5,8,1.8,10.5-1.5l0,0C287.4,259,286.7,254.3,283.4,251.8L283.4,251.8L283.4,251.8z
		"/>
	<path class="st0" d="M294.2,232.4c-11.1-8.3-24.3-12.8-38.1-12.8c-13.9,0-27.1,4.4-38.2,12.8c-3.3,2.5-4,7.2-1.5,10.5
		c1.4,1.9,3.6,3,6,3c1.6,0,3.2-0.5,4.5-1.5c8.5-6.4,18.5-9.8,29.2-9.8c10.6,0,20.7,3.4,29.1,9.7c3.3,2.5,8,1.8,10.5-1.5l0,0
		C298.1,239.6,297.5,234.9,294.2,232.4L294.2,232.4z"/>
	<path class="st0" d="M304.5,213.5c-14.1-10.6-30.8-16.2-48.5-16.2s-34.5,5.6-48.6,16.3c-3.3,2.5-4,7.2-1.5,10.5c1.4,1.9,3.6,3,6,3
		c1.6,0,3.2-0.5,4.5-1.5c11.5-8.7,25.1-13.2,39.5-13.2s28,4.6,39.5,13.2c3.3,2.5,8,1.8,10.5-1.5l0,0
		C308.5,220.7,307.8,216,304.5,213.5L304.5,213.5z M263.5,278.3c0,4.1-3.4,7.5-7.5,7.5s-7.5-3.4-7.5-7.5s3.4-7.5,7.5-7.5
		S263.5,274.2,263.5,278.3z"/>
</g>
</svg>
