<svg xmlns="http://www.w3.org/2000/svg" version="1.1" xmlns:xlink="http://www.w3.org/1999/xlink" xmlns:svgjs="http://svgjs.com/svgjs" width="512" height="512" x="0" y="0" viewBox="0 0 24 24" style="enable-background:new 0 0 512 512" xml:space="preserve"><g><path d="M17.5 13c-3.584 0-6.5-2.916-6.5-6.5S13.916 0 17.5 0 24 2.916 24 6.5 21.084 13 17.5 13zm0-12C14.468 1 12 3.468 12 6.5s2.468 5.5 5.5 5.5S23 9.532 23 6.5 20.532 1 17.5 1z" fill="#000000" data-original="#000000"></path><path d="M15 .85h1v11.301h-1zM19 .85h1v11.301h-1z" fill="#000000" data-original="#000000"></path><path d="M11.85 4h11.301v1H11.85zM11.85 8h11.301v1H11.85zM2.5 15a.5.5 0 0 1-.5-.5v-9C2 4.121 3.121 3 4.5 3h4a.5.5 0 0 1 0 1h-4C3.673 4 3 4.673 3 5.5v9a.5.5 0 0 1-.5.5zM6 24a.501.501 0 0 1-.46-.697l3-7a.501.501 0 0 1 .92.394l-3 7A.501.501 0 0 1 6 24zM17 24a.501.501 0 0 1-.46-.303l-3-7a.501.501 0 0 1 .92-.394l3 7A.501.501 0 0 1 17 24zM11.5 22a.5.5 0 0 1-.5-.5v-5a.5.5 0 0 1 1 0v5a.5.5 0 0 1-.5.5z" fill="#000000" data-original="#000000"></path><path d="M22.5 17H.5a.5.5 0 0 1-.5-.5v-2a.5.5 0 0 1 .5-.5h13a.5.5 0 0 1 0 1H1v1h21v-1.5a.5.5 0 0 1 1 0v2a.5.5 0 0 1-.5.5z" fill="#000000" data-original="#000000"></path></g></svg>